<svg xmlns="http://www.w3.org/2000/svg" viewBox="0 0 496.158 496.158" xml:space="preserve"><path style="fill:#337180" d="M248.082.003C111.071.003 0 111.062 0 248.085c0 137.001 111.07 248.07 248.082 248.07 137.006 0 248.076-111.069 248.076-248.07C496.159 111.062 385.088.003 248.082.003z"/><path style="fill:#a6a7a9" d="M103.57 150.833c-5.877-1.958-7.835-6.53-9.14-1.305-1.305 5.224 21.547 18.283 21.547 18.283l6.53-12.406s-13.059-2.613-18.937-4.572zm158.497 28.73h-72.48c-8.653 0-17.55 7.017-19.87 15.672l-10.842 40.485c-2.318 8.654 2.819 15.67 11.473 15.67h65.297c16.325 0 24.954-7.836 29.502-24.813l8.395-31.343c2.318-8.654-2.82-15.671-11.475-15.671zm-.456 32.179-4.806 17.939c-2.602 9.716-7.541 14.201-16.883 14.201h-30.997c-4.954 0-7.892-4.017-6.564-8.969l6.206-23.171c1.326-4.953 6.417-8.968 11.37-8.968h35.105c4.955-.001 7.895 4.015 6.569 8.968z"/><path style="fill:#a6a7a9" d="M419.935 145.609H129.69l-11.038 7.854-11.816 48.955h313.1s4.57-10.448 4.57-28.078c-.001-17.63-4.571-28.731-4.571-28.731z"/><path style="fill:#bcbcbc" d="M421.567 145.609H129.69c-7.183 0-8.925 2.395-10.653 6.479-1.878 4.438-7.56 37.091-11.114 39.882-3.554 2.793-19.554 2.363-17.412 7.182 2.414 5.43 29.871 6.976 28.906 29.82-2.698 7.436-5.972 15.014-10.623 23.072-7.113 12.331-20.896 26.119-31.996 50.279-11.101 24.16-5.225 43.749-5.225 43.749s12.888 3.361 33.734 4.354c20.846.992 50.5-4.354 50.5-4.354s54.087-128.412 57.08-133.748 8.217-7.947 15.4-7.947h121.452s3.83-1.256 3.809-1.959c0 0-3.868.227-3.87-.165-.053-5.53.532-20.421 7.896-27.26 9.142-8.489 68.563-5.877 68.563-5.877.001-7.508-4.57-23.507-4.57-23.507z"/><path style="fill:#bcbcbc" d="M349.716 202.31a70.251 70.251 0 0 0-.039 2.067h.063s3.83-1.256 3.809-1.959c0 0-3.459.202-3.833-.108z"/><path style="fill:#888889" d="M425.963 169.109c-3.526-.146-59.534-2.336-68.388 5.885-7.365 6.839-7.949 21.73-7.896 27.26 0 .021.016.04.037.057.215-6.723 1.54-18.51 7.859-24.379 9.142-8.489 68.563-5.876 68.563-5.876 0-.878-.064-1.876-.175-2.947z"/><path style="fill:#8b8b8c" d="M193.581 192.051s-20.469.241-27.886.241c-7.416 0-14.812 1.44-18.134 9.433l-69.63 145.682c5.765 1.054 15.212 2.439 27.378 3.019 11.801.562 26.421-.908 36.891-2.289l61.275-146.7c3.322-7.991-2.939-9.386-9.894-9.386z"/><path style="fill:#a6a7a9" d="m112.167 181.523-.609 2.611H352.17c.298-.889.621-1.766.991-2.611H112.167z"/><path style="fill:#9c9da0" d="M158.42 148.439h48.32v33.08h-48.32z"/><path style="fill:#c6c6c6" d="M421.567 145.609H129.69c-6.822 0-8.734 2.162-10.391 5.876h303.82a194.087 194.087 0 0 0-1.552-5.876z"/><path style="fill:#9c9da0" d="M113.322 318.145c-2.543 3.572-2.223 8.553.98 11.754 3.203 3.203 8.182 3.523 11.754.981l-12.734-12.735zm13.908-1.173c-3.257-3.256-8.35-3.532-11.932-.85l12.782 12.781c2.683-3.581 2.404-8.675-.85-11.931z"/></svg>